<svg width="220" height="336" viewBox="0 0 220 336" fill="none" xmlns="http://www.w3.org/2000/svg">
<g filter="url(#filter0_d_702_65)">
<path d="M54.5 279.5H67.5H75V231.5C74.5 228 72.8999 221.5 70.4997 223.5C68.0995 225.5 66.8551 230.667 66.533 233C66.533 240.833 66.3264 262.388 65.5 285.939M54.5 279.5H51.25M54.5 279.5V301M54.5 279.5L59.029 217M48 279.5L44 281.841M48 279.5V301M48 279.5H51.25M48 301L44 303.732M48 301H51M58 301V293.5H60.6809M58 301V322.5L60.6809 319.5M58 301H54.5M79 279.5L76.25 281.833M79 279.5V299M79 279.5H82.5M79 299L76.25 302.077M79 299L82.5 298.865M30.5 312.951L27.5 315V291.5L30.5 289.744M30.5 312.951V289.744M30.5 312.951L34 310.561M30.5 289.744L34 287.695M34 310.561V287.695M34 310.561L37 308.512M34 287.695L37 285.939M37 308.512V285.939M37 308.512L40 306.463M37 285.939L40 284.183M40 306.463V284.183M40 306.463L44 303.732M40 284.183L44 281.841M44 303.732V281.841M51 301L51.25 279.5M51 301H54.5M60.6809 319.5L63.5 316.345M60.6809 319.5V316.345M60.6809 293.5H62.5L63.5 292.652M60.6809 293.5V303.732M63.5 316.345V292.652M63.5 316.345L66.533 312.951M63.5 292.652L66.533 290.078M66.533 312.951V290.078M66.533 312.951L70.4997 308.512M66.533 290.078L70.4997 286.712M70.4997 308.512V286.712M70.4997 308.512L73.5 305.155M70.4997 286.712L73.5 284.167M73.5 305.155V284.167M73.5 305.155L76.25 302.077M73.5 284.167L76.25 281.833M76.25 302.077V281.833M82.5 298.865V279.5M82.5 298.865L86 298.731M82.5 279.5H86M82.5 279.5V247H79H90.9375M86 298.731V279.5M86 298.731L89 298.615M86 279.5H89M89 298.615V279.5M89 298.615L93 298.462M89 279.5H93M93 298.462V279.5M93 298.462L96.5 298.327M93 279.5H96.5M96.5 298.327V279.5M96.5 298.327L100.75 298.163M96.5 279.5H100.75M100.75 298.163V279.5M100.75 298.163L102.875 298.082M100.75 279.5H102.875M102.875 298.082L105 298V279.5H102.875M102.875 298.082V279.5M102.875 279.5V247M28.5 322.5H53.5M35 316.345H60.6809M60.6809 316.345V310.561M42 310.561H60.6809M60.6809 310.561V303.732M48 303.732H60.6809M24.5 326.5V318M24.5 326.5L19 321M24.5 326.5H17.5M17.5 326.5L9.5 319.5M17.5 326.5H12M12 326.5L10.5 323.5M12 326.5H6M6 326.5V323.5M6 326.5H0M106 247H102.875M102.875 247H90.9375M90.9375 247V258M90.9375 258C89.0833 259.5 86.4875 263.6 90.9375 268M90.9375 258C97.875 256 96.5 273.5 90.9375 268M90.9375 268V278M81 242.5H90.9375M106 242.5H90.9375M90.9375 242.5V237.75M90.9375 229.5V233M90.9375 233H89M90.9375 233H94.5M90.9375 233V237.75M90.9375 237.75H88M90.9375 237.75H96.5M88 198L87.6111 203.25M88 198H94.5M88 198C88 198 88.8626 196.356 89.9706 194.5M93 150.5L139.5 189.5M93 150.5L90.9375 148.5L51.25 212.5M93 150.5L88.2542 159M139.5 189.5L204.5 228M139.5 189.5L139.746 193.75M144.5 276L141.09 217M204.5 228L209.5 264.5M204.5 228L215.5 233L160.5 185.5L131.306 169.711M204.5 228L111.5 159M111.5 159L90.9375 142M111.5 159V135M111.5 159L131.306 169.711M90.9375 142L88.2542 146.21M90.9375 142L111.5 135M51.25 212.5H46L88.2542 146.21M51.25 212.5L59.029 217M59.029 217L59.5 210.5L63.1292 204M63.1292 204H65.5M63.1292 204L65.6417 199.5M65.6417 199.5H69M65.6417 199.5L68.4333 194.5M68.4333 194.5H73.5M68.4333 194.5L71.225 189.5M71.225 189.5H76.25M71.225 189.5L75.9708 181M75.9708 181H81M75.9708 181L79 175.575M79 175.575H82.5M79 175.575L81 171.993M81 171.993H84M81 171.993L84 166.619M84 166.619H88M84 166.619L86 163.037M86 163.037H89M86 163.037L88.2542 159M88.2542 159H94.5M141.09 217L144.5 219.5M141.09 217L140.714 210.5M140.714 210.5L146 215.5M140.714 210.5L140.425 205.5M140.425 205.5L146 210.5M140.425 205.5L140.165 201M140.165 201L149.5 207.5M140.165 201L139.991 198M139.991 198L146 201M139.991 198L139.746 193.75M139.746 193.75L153 201M169 262.5L167.5 233C167.167 231.167 166.1 226.7 164.5 223.5C162.5 219.5 161 238 162 268M162 268C159.333 269.333 156 272.5 164 274.5M162 268L164 267.5M186 260V233C186.833 235.333 188.8 243.1 190 255.5M200.5 260C200.1 256.4 200.333 245.5 200.5 240.5C201.167 242.5 202.7 249.1 203.5 259.5M111.5 135L131.306 150.5M131.306 150.5L134.5 153L127.5 142L125 140.143M131.306 150.5V169.711M110 129V101M110 129L102 131.489M110 129L115.424 133.029M88.2542 146.21L81 147L87.5 136L90.9375 134.931M90.9375 134.931V112.5M90.9375 134.931L97.0487 133.029M90.9375 112.5L110 101M90.9375 112.5L87.5 113L94.5 104L98 101.968M110 101L125 115.5M125 140.143V115.5M125 140.143L120.212 136.586M125 115.5L127.5 117L126 113L120.212 106.489M97.0487 133.029V117L99.5 109.5L102 113V131.489M97.0487 133.029L102 131.489M115.424 133.029V118.5L117.5 112.5L119.5 118.5L120.212 136.586M115.424 133.029L120.212 136.586M120.212 106.489L108.5 30.5M120.212 106.489L115.106 100.744M108.5 30.5L98 90V101.968M108.5 30.5L107.737 8M98 101.968L100.448 100.546M107.5 1L107.737 8M107.737 8H102M107.737 8H113.5M100.448 100.546V88M100.448 100.546L103.5 98.7742M103.5 98.7742L110 95L115.106 100.744M103.5 98.7742V80M115.106 100.744V88M51.25 330C50.6667 329.333 50.1 328 52.5 328M56 328H59.5M59.5 328C60.1667 326 60.6 322.8 57 326C53.4 329.2 57.1667 328.667 59.5 328ZM59.5 328L62.5 328.5C63.3608 328.672 64.5594 328.773 65.2969 328.5M65.2969 328.5C65.9874 328.244 66.2737 327.66 65.5 326.5C63.9 324.1 64.698 326.833 65.2969 328.5ZM65.2969 328.5L68.5 329C71 329.333 75.3 329.2 72.5 326C69.7 322.8 73.8333 328 76.25 331C78.1667 330.5 81.7 328.8 80.5 326C79.3 323.2 82 328.167 83.5 331L90.9375 330M90.9375 330C91.2917 328.333 91.4 325 89 325M90.9375 330C93.2917 330.5 97.4 330.6 95 327C92.6 323.4 98 322.833 101 323C101.5 323.667 102 325 100 325C98 325 97.5 328.333 97.5 330C99 330.667 102 331.3 102 328.5C102 325.7 104.667 328.333 106 330M89 325C86 325 85.5 321.5 86.5 320.5C87.3 319.7 88.5 323.167 89 325ZM97.5 302.077C100.833 299.385 107.9 295.2 109.5 300C111.5 306 114 304.31 109.5 305.155C105 306 107 302 101 307C96.2 311 101.667 313 105 313.5C105.167 311.833 105.9 308.7 107.5 309.5C109.5 310.5 110.5 308.5 110.5 311.5C110.5 313.9 115.5 313.467 118 312.951M76.25 322V318.5C77.6667 319.5 80.4 320.9 80 318.5C79.5 315.5 83 314.049 79 313.5M85 312.951C84.6667 310.916 84.8 306.676 88 306M110.5 317.5C113.333 316 118.4 314.8 116 322C113 331 123.5 318.5 123 327M111.5 330H114.5C114.833 330.333 115.3 330.5 114.5 328.5C113.7 326.5 119.167 328.667 122 330M128 326C127 327.667 125.9 330.8 129.5 330C134 329 134 331 136 327C137.6 323.8 138.333 326.667 138.5 328.5C140.167 329.333 143.5 330.2 143.5 327M148 323.5C147.833 322 148 319.2 150 320M153.5 318.5C154 316.833 155.4 314.4 157 318M150 328.5C152.167 329.333 156.8 330.5 158 328.5C159.2 326.5 160.833 326.667 161.5 327M166 329C167.333 329.833 170.3 331.1 171.5 329.5C172.7 327.9 171.667 325.833 171 325C171.667 325.833 173.2 327.2 174 326M123.5 313.5C124.667 314.5 127.9 315.9 131.5 313.5M125.5 309.5C125.333 307.333 126 303.9 130 307.5M116 302.077C118 301.321 122 300.879 122 305.155M122 300C122.333 298.974 123.5 297.438 125.5 299.5M131.5 285.939C129.833 286.959 127.5 289.5 131.5 291.5C135.5 293.5 135.167 293.333 134.5 293C131.833 294.109 127.9 296.694 133.5 298.163C139.1 299.633 137.5 299.077 136 298.615C133.833 299.462 130.3 301.339 133.5 302.077C136.7 302.815 138.167 302 138.5 301.5C137.833 303 136.9 306 138.5 306C140.1 306 142.5 305.437 143.5 305.155L142.5 307.5M147 304.5C148.833 304.667 151.7 305.9 148.5 309.5M134.5 283.5C134.833 282 136.3 279 139.5 279C142.7 279 140.833 282.667 139.5 284.5M145.5 280C143.667 277.833 142.2 274.2 151 277M151.5 285C147.667 283.5 142.7 280.6 153.5 281M147 291.5C149.333 289.833 153.7 288 152.5 294C151.3 300 149.667 298.167 149 296.5C149 299 150 303.1 154 299.5M159.5 292C157.667 292.5 154.8 294.2 158 297M159 280C162 278.667 166.8 277.8 162 285M164 290C167 289.609 172 290.694 168 298.163C164 305.633 166 302.167 167.5 299.5C169 297.333 172.1 293.3 172.5 294.5C173 296 177.5 296 175 299.5M178 305.155C173.5 304.937 167.6 306.4 180 314M183.5 306C183 301.603 183.1 295.279 187.5 305.155M171.5 287C175.5 288.333 184.5 290 188.5 286M188.5 286C192.5 282 194.5 291.667 195 297M188.5 286C188.077 284.097 186.581 280.825 183.5 278.278M195 297C195.333 299.167 195 302.9 191 300.5M195 297C196.667 299.667 201.2 304.6 206 303M173.5 272C170.333 272.5 165.2 272.4 170 268C174.8 263.6 175.667 264.833 175.5 266C171.5 264.167 166.5 260.2 178.5 259C180.5 258.333 183.9 256.2 181.5 253M176.5 275C179.424 275.585 181.725 276.811 183.5 278.278M183.5 278.278C183.833 276.852 184 273.7 182 272.5M191.5 279.5C193.833 280.333 198.6 280.9 199 276.5M200.5 287C199.667 284.333 199.6 279.5 206 281.5C212.4 283.5 213.333 280.667 213 279M188.5 271.5C189.574 270.555 190.97 269.573 192.5 268.847M204.5 276C204.337 275.278 204.153 274.613 203.95 274M192.5 268.847C193.5 268.065 194.9 266.3 192.5 265.5M192.5 268.847C196.562 266.92 201.563 266.802 203.95 274M183.5 262.5C185.667 260 190.5 256.1 192.5 260.5M198.5 260C199.667 262.5 203.1 266.1 207.5 260.5M203.95 274C203.967 272.718 204.3 270.022 205.5 269.5M207.5 267C209.333 266.574 213.1 266.977 213.5 272M86.4074 219.5L86 225H98V199.5C97.3333 196.833 95.7 191.1 94.5 189.5C93.7841 188.545 91.609 191.755 89.9706 194.5M86.4074 219.5H92M86.4074 219.5L86.7037 215.5M86.7037 215.5H93M86.7037 215.5L86.963 212M86.963 212H94M86.963 212L87.2222 208.5M87.2222 208.5H93M87.2222 208.5L87.6111 203.25M87.6111 203.25H92M89.9706 194.5H93.5M115.5 278H129.5V242.5C129.333 235.167 127.986 217 121 217C117 217 118.157 217.135 117.5 219.5C116.867 221.777 115.091 224.792 115.5 227V278ZM94.5 166L90.9375 170.5V181H94.5L98 175.5L94.5 166Z" stroke="white" shape-rendering="crispEdges"/>
</g>
</svg>
