<svg width="217" height="198" viewBox="0 0 217 198" fill="none" xmlns="http://www.w3.org/2000/svg">
<g filter="url(#filter0_d_702_69)">
<path d="M5.57311 182.059L9.07311 103.059M5.57311 182.059C4.23978 182.392 1.47311 182.059 1.07311 178.059C0.573111 173.059 2.57311 174.559 9.07311 103.059M5.57311 182.059C7.07315 182.059 10.3732 181.259 11.5732 178.059C13.0732 174.059 6.57298 119.059 9.07311 103.059M9.07311 103.059C9.90649 99.8922 12.4732 93.3589 16.0732 92.5589C17.6047 92.2185 18.615 88.9825 19.1041 84.6839M9.07311 103.059C8.73982 99.5589 7.27324 92.5589 4.07324 92.5589C2.07324 92.5589 3.07324 89.9339 4.07324 84.6839M16.0732 61.0589C19.0417 64.0274 20.052 76.3518 19.1041 84.6839M4.07324 61.0589C6.07324 71.5589 5.07324 79.4339 4.07324 84.6839M4.07324 84.6839H9.32324M19.1041 84.6839H14.5732M14.5732 84.6839C14.9066 78.1422 14.7732 64.2589 11.5732 61.0589M14.5732 84.6839H9.32324M9.32324 84.6839C9.90658 79.3089 10.3732 67.0589 7.57324 61.0589M203.573 182.559V116.059M203.573 182.559C205.74 182.059 209.673 177.859 208.073 165.059C206.473 152.259 207.407 127.059 208.073 116.059M203.573 182.559C202.407 183.059 199.673 182.659 198.073 177.059C196.073 170.059 200.573 165.559 200.573 116.059M203.573 116.059H200.573M203.573 116.059H208.073M200.573 116.059C201.073 114.892 201.573 111.659 199.573 108.059C197.573 104.459 198.74 70.2255 199.573 53.5589C199.74 50.5589 200.773 46.0589 203.573 52.0589C207.073 59.5589 216.573 58.5588 208.073 116.059M116.073 165.059C114.907 165.726 112.773 169.059 113.573 177.059C113.713 178.457 113.672 179.794 113.494 181.059M116.073 165.059L118.917 155.559M116.073 165.059C151.544 155.226 207.544 119.159 147.779 53.5589M138.073 91.5589H140.073M138.073 91.5589L118.917 155.559M138.073 91.5589V86.5589L139.397 82.0588M138.073 91.5589H109.073M80.0732 91.5589V94.0589C83.4066 103.059 89.6732 121.759 88.0732 124.559C87.1705 126.139 89.0359 134.951 92.0821 144.559M80.0732 91.5589C78.5732 84.5589 74.4732 69.1589 70.0732 63.5589C69.6256 62.8014 69.1499 61.9604 68.6642 61.0589M80.0732 91.5589H99.5732M105.573 171.559C103.703 170.495 101.627 167.503 99.5732 163.508M105.573 171.559V174.559M105.573 171.559L109.741 166.561M97.2502 158.559C98.0129 160.32 98.7914 161.987 99.5732 163.508M97.2502 158.559C95.3675 154.211 93.5817 149.289 92.0821 144.559M97.2502 158.559L98.0764 166.561M99.5732 181.059L98.0764 166.561M99.5732 181.059C99.1066 179.559 97.2502 186.559 88.0732 179.559C80.7317 173.959 70.6809 170.559 66.5732 169.559M99.5732 181.059C99.8447 181.989 100.217 183.137 100.664 184.349M118.917 155.559L109.741 166.561M68.6642 61.0589L76.7201 52.0589M68.6642 61.0589C67.6204 59.1215 66.5303 56.9051 65.5732 54.6392M103.573 22.0588L100.664 25.3088M103.573 22.0588V19.0588M103.573 22.0588L106.657 24.5588M146.75 57.0588L142.073 53.2679M146.75 57.0588L139.397 82.0588M146.75 57.0588L147.779 53.5589M76.7201 52.0589L74.5732 50.0588M76.7201 52.0589L80.0732 47.5588M76.7201 52.0589L84.5732 43.2855M80.0732 47.5588L78.0732 45.5588M80.0732 47.5588L84.5732 43.2855M84.5732 43.2855L82.0732 40.5588M84.5732 43.2855L88.0732 39.3753M88.0732 39.3753L86.5732 38.0588M88.0732 39.3753L91.2998 35.7706M91.2998 35.7706L89.5732 33.0589M91.2998 35.7706L95.5173 31.0588M95.5173 31.0588L92.5732 28.5588M95.5173 31.0588L97.7551 28.5588M97.7551 28.5588L95.5173 26.0588M97.7551 28.5588L100.664 25.3088M100.664 25.3088L99.0732 23.0588M142.073 53.2679V50.0588M142.073 53.2679L136.929 49.0978M136.929 49.0978V45.5588M136.929 49.0978L132.563 45.5588M132.563 45.5588V42.0588M132.563 45.5588L128.246 42.0588M128.246 42.0588V39.0588M128.246 42.0588L124.545 39.0588M124.545 39.0588V35.7706M124.545 39.0588L118.917 34.4967M118.917 34.4967L118.573 30.0588M118.917 34.4967L113.442 30.0588M113.442 30.0588L114.073 27.0588M113.442 30.0588L109.741 27.0588M109.741 27.0588V23.0588M109.741 27.0588L106.657 24.5588M106.657 24.5588V22.0588M99.5732 163.508V166.559M109.741 166.561V169.059M139.397 82.0588C141.848 82.7255 146.75 85.7589 146.75 92.5589M132.563 139.559C137.567 135.892 147.873 124.859 149.073 110.059M92.0821 144.559C81.2458 140.726 60.3732 124.959 63.5732 92.5589M65.5732 54.6392C62.6643 47.752 60.9851 40.4083 65.5732 39.0588C68.6328 38.159 71.7572 35.2508 74.5732 31.8035M65.5732 54.6392C43.5753 79.1139 19.2789 135.763 98.0764 166.561M147.779 53.5589L150.573 44.0589C149.073 40.7256 145.273 33.8589 142.073 33.0589C140.575 32.6844 136.805 29.8852 132.563 26.415M74.5732 31.8035C79.5806 25.6737 83.6132 17.839 84.5732 16.5589C85.7732 14.959 88.4066 15.8923 89.5732 16.5589C99.0732 12.0589 96.0732 0.0589152 103.573 1.05892C109.573 1.85892 116.302 10.3922 118.917 14.5589C122.313 17.6617 127.743 22.4716 132.563 26.415M74.5732 31.8035C69.7399 33.0553 59.8732 36.5588 59.0732 40.5588C58.0732 45.5588 49.5732 54.6392 47.0732 54.6392C45.0732 54.6392 43.9066 57.5856 43.5732 59.0588M36.0732 71.5588C34.5732 75.0588 31.7732 83.7588 32.5732 90.5588C33.5732 99.0588 30.0732 99.5588 29.5732 98.5588C29.0732 97.5588 26.5732 105.559 30.5732 109.059C33.7732 111.859 33.2399 118.559 32.5732 121.559M36.0732 131.559C35.4066 133.726 35.3732 138.359 40.5732 139.559C47.0732 141.059 30.0732 145.059 59.0732 161.559M113.494 181.059C115.68 182.059 122.555 182.159 132.563 174.559C136.233 175.692 144.973 175.067 150.573 163.508C157.573 149.059 162.073 170.559 178.573 131.559M113.494 181.059C113.331 182.219 113.053 183.318 112.696 184.349M183.073 119.059C182.24 117.059 181.373 112.059 184.573 108.059M184.573 92.5589C183.073 91.2255 180.373 87.4588 181.573 83.0588M180.073 76.5588C179.573 73.5321 177.073 66.1946 171.073 61.0589C170.24 57.5589 166.273 49.5588 157.073 45.5588M76.7201 27.0588C71.0045 27.5588 57.6732 32.3588 50.0732 47.5588C43.2399 51.8922 29.5732 65.759 29.5732 86.5589C26.7399 91.2256 22.5732 103.659 28.5732 116.059C27.4066 122.226 27.5732 136.159 37.5732 142.559C37.0732 146.725 40.6732 157.359 59.0732 166.559C61.4066 168.892 65.9732 173.759 65.5732 174.559C65.0732 175.559 75.0701 175.559 86.5732 182.559C95.7758 188.159 99.8016 186.086 100.664 184.349M100.664 184.349C102.139 188.348 104.425 193.059 106.573 193.059C108.347 191.729 111.211 188.629 112.696 184.349M112.696 184.349C115.344 185.419 123.025 185.959 132.563 179.559C138.4 179.559 151.773 176.659 158.573 165.059C166.407 162.059 182.773 148.359 185.573 117.559C187.907 111.059 191.173 95.759 185.573 86.5589C185.907 81.0589 184.273 68.2589 175.073 61.0589C174.573 56.6032 169.673 46.0285 154.073 39.3753C152.4 35.6739 145.755 27.8999 132.563 26.415M109.073 91.5589C109.301 89.2117 109.475 86.302 109.528 83.0588M109.073 91.5589H99.5732M109.528 83.0588C106.23 75.2287 101.994 64.5252 99.0732 55.7447M109.528 83.0588C109.611 78.0457 109.407 72.2359 108.676 66.4753M99.0732 55.7447C95.2179 44.1537 93.6558 35.9138 99.5732 42.0588C104.794 47.4808 107.462 56.9103 108.676 66.4753M99.0732 55.7447C97.2399 53.8754 92.7732 49.929 89.5732 49.0978C88.4243 48.7994 88.5991 50.9794 89.5732 54.3097M99.5732 91.5589C95.5732 91.5589 83.0732 76.5588 86.5732 76.5588C90.0732 76.5588 106.657 88.5588 105.573 88.5588C104.489 88.5588 82.0732 66.0588 88.0732 67.5588C94.0732 69.0588 109.528 83.0588 103.573 80.0588C99.3288 77.9206 91.9904 62.5736 89.5732 54.3097M108.676 66.4753C108.641 63.1698 109.873 55.4588 115.073 51.0588M115.073 51.0588C121.573 45.5588 115.073 41.0588 116.073 42.0588C117.073 43.0588 125.896 68.0588 111.573 88.5588M115.073 51.0588C115.763 57.0588 116.403 70.1588 113.442 74.5588M91.2998 88.5588C87.7429 88.4754 82.118 87.5836 88.0732 84.6839M114.073 88.5588C116.073 84.6839 115.26 83.0588 118.917 88.5588C121.842 92.9589 120.907 86.7255 120.073 83.0588C119.24 80.8921 119.373 75.2588 126.573 70.0588C135.573 63.5589 128.573 65.0588 129.073 63.0588C129.271 62.2695 130.913 64.1281 131.918 67.5588M124.545 90.5588C133.506 81.7815 133.46 72.8209 131.918 67.5588M131.918 67.5588C131.359 71.2255 129.308 79.5588 125.573 83.5588M89.5732 54.3097C94.2399 58.3927 103.573 67.5588 103.573 71.5588" stroke="white" shape-rendering="crispEdges"/>
</g>
</svg>
